# xmcd
#
# Track frame offsets: 
#        150
#        29458
#        59958
#        85770
#        108623
#        122110
#        156280
#        192285
#        221625
#        270673
#        295755
#
# Disc length: 4236 seconds
#
# Revision: 2
# Processed by: cddbd v1.5.2PL0 Copyright (c) Steve Scherf et al.
# Submitted via: ExactAudioCopyFreeDBPlugin 1.0
#
DISCID=aa108a0b
DTITLE=Pete York - Superblues
DYEAR=1991
DGENRE=Jazz
TTITLE0=High Heel Sneakers
TTITLE1=Flip, Flop and Fly
TTITLE2=Parchman Farm
TTITLE3=Lover Man
TTITLE4=Dimples
TTITLE5=Born Again_Get Back
TTITLE6=Ain´t No Love (In the heart of the city)
TTITLE7=Never too Old to Rock
TTITLE8=Resurrection Shuffle
TTITLE9=Out Of Time
TTITLE10=Johnny B. Goode
EXTD=YEAR: 1991
EXTT0=
EXTT1=
EXTT2=
EXTT3=
EXTT4=
EXTT5=
EXTT6=
EXTT7=
EXTT8=
EXTT9=
EXTT10=
PLAYORDER=
